<?xml version="1.0" encoding="utf-8"?>
<!-- Generator: Adobe Illustrator 17.0.0, SVG Export Plug-In . SVG Version: 6.00 Build 0)  -->
<!DOCTYPE svg PUBLIC "-//W3C//DTD SVG 1.1//EN" "http://www.w3.org/Graphics/SVG/1.1/DTD/svg11.dtd">
<svg version="1.1" id="Layer_1" xmlns="http://www.w3.org/2000/svg" xmlns:xlink="http://www.w3.org/1999/xlink" x="0px" y="0px"
	 width="512px" height="512px" viewBox="0 0 512 512" enable-background="new 0 0 512 512" xml:space="preserve">
<g>
	<g>
		<g>
			<path fill="#ABABAB" d="M341.422,149.489h-16.017c-5.873,0-10.678,4.805-10.678,10.678c0,5.873,4.805,10.678,10.678,10.678
				h16.017c5.873,0,10.678-4.805,10.678-10.678C352.1,154.294,347.295,149.489,341.422,149.489z"/>
			<path fill="#ABABAB" d="M421.506,64.067h-64.067C357.439,28.83,328.609,0,293.372,0h-80.083
				c-35.237,0-64.067,28.83-64.067,64.067H90.494c-29.364,0-53.389,24.025-53.389,53.389v21.356
				c0,16.017,12.279,29.364,27.762,31.499l27.228,293.105C94.765,491.178,117.723,512,145.485,512h221.03
				c27.762,0,50.719-20.822,53.389-48.584l27.228-293.105c15.483-2.136,27.762-15.483,27.762-31.499v-21.356
				C474.895,88.092,450.87,64.067,421.506,64.067z M213.289,21.356h80.083c23.491,0,42.711,19.22,42.711,42.711H170.578
				C170.578,40.576,189.798,21.356,213.289,21.356z M453.539,138.811c0,5.873-4.805,10.678-10.678,10.678h-5.339
				c-5.339,0-10.144,4.271-10.678,9.61l-28.296,302.715c-1.602,16.551-15.483,29.364-32.033,29.364h-221.03
				c-16.551,0-30.432-12.813-32.033-29.364l-27.228-290.97h191.132c5.873,0,10.678-4.805,10.678-10.678
				c0-5.873-4.805-10.678-10.678-10.678H74.478h-5.339c-5.873,0-10.678-4.805-10.678-10.678v-21.356
				c0-17.618,14.415-32.033,32.033-32.033h331.011c17.618,0,32.033,14.415,32.033,32.033V138.811z"/>
			<path fill="#ABABAB" d="M170.578,213.556c-5.873,0-10.678,4.805-10.678,10.678v202.878c0,5.873,4.805,10.678,10.678,10.678
				c5.873,0,10.678-4.805,10.678-10.678V224.234C181.255,218.361,176.45,213.556,170.578,213.556z"/>
			<path fill="#ABABAB" d="M256,213.556c-5.873,0-10.678,4.805-10.678,10.678v202.878c0,5.873,4.805,10.678,10.678,10.678
				s10.678-4.805,10.678-10.678V224.234C266.678,218.361,261.873,213.556,256,213.556z"/>
			<path fill="#ABABAB" d="M341.422,213.556c-5.873,0-10.678,4.805-10.678,10.678v202.878c0,5.873,4.805,10.678,10.678,10.678
				c5.873,0,10.678-4.805,10.678-10.678V224.234C352.1,218.361,347.295,213.556,341.422,213.556z"/>
		</g>
	</g>
</g>
</svg>
